# xmcd CD database file
#
# Track frame offsets:
#	150
#	22752
#	53492
#	99515
#	134290
#	171100
#	193663
#	225826
#
# Disc length: 3584 seconds
#
# Revision: 1
# Processed by: cddbd v1.5.2PL0 Copyright (c) Steve Scherf et al.
# Submitted via: CDex 1.70beta2
#
DISCID=530dfe08
DTITLE=Vic Lewis West Coast All Stars - Me and You
DYEAR=1997
DGENRE=Jazz
TTITLE0=Me and You!
TTITLE1=You and the Night and the Music
TTITLE2=Between You and Me and the Gatepost
TTITLE3=You're My Thrill
TTITLE4=You and Me
TTITLE5=My Ideal
TTITLE6=Bl-You-uuz
TTITLE7=Somebody Loves Me
EXTD=YEAR: 1997
EXTT0=
EXTT1=
EXTT2=
EXTT3=
EXTT4=
EXTT5=
EXTT6=
EXTT7=
PLAYORDER=
